HIERARCHY
ROOT Hips
{
	OFFSET 0.000000 0.000000 0.000000
	CHANNELS 6 Xposition Yposition Zposition Zrotation Yrotation Xrotation 
	JOINT LHipJoint
	{
		OFFSET 0.000000 0.000000 0.000000
		CHANNELS 3 Zrotation Yrotation Xrotation
		JOINT LeftUpLeg
		{
			OFFSET 1.363060 -1.794630 0.839290
			CHANNELS 3 Zrotation Yrotation Xrotation
			JOINT LeftLeg
			{
				OFFSET 2.448110 -6.726130 0.000000
				CHANNELS 3 Zrotation Yrotation Xrotation
				JOINT LeftFoot
				{
					OFFSET 2.562200 -7.039590 0.000000
					CHANNELS 3 Zrotation Yrotation Xrotation
					JOINT LeftToeBase
					{
						OFFSET 0.157640 -0.433110 2.322550
						CHANNELS 3 Zrotation Yrotation Xrotation
						End Site
						{
							OFFSET 0.000000 0.000000 0.000000
						}
					}
				}
			}
		}
	}
	JOINT RHipJoint
	{
		OFFSET 0.000000 0.000000 0.000000
		CHANNELS 3 Zrotation Yrotation Xrotation
		JOINT RightUpLeg
		{
			OFFSET -1.305520 -1.794630 0.839290
			CHANNELS 3 Zrotation Yrotation Xrotation
			JOINT RightLeg
			{
				OFFSET -2.542530 -6.985550 0.000000
				CHANNELS 3 Zrotation Yrotation Xrotation
				JOINT RightFoot
				{
					OFFSET -2.568260 -7.056230 0.000000
					CHANNELS 3 Zrotation Yrotation Xrotation
					JOINT RightToeBase
					{
						OFFSET -0.164730 -0.452590 2.363150
						CHANNELS 3 Zrotation Yrotation Xrotation
						End Site
						{
							OFFSET 0.000000 0.000000 0.000000
						}
					}
				}
			}
		}
	}
	JOINT LowerBack
	{
		OFFSET 0.000000 0.000000 0.000000
		CHANNELS 3 Zrotation Yrotation Xrotation
		JOINT Spine
		{
			OFFSET 0.028270 2.035590 -0.193380
			CHANNELS 3 Zrotation Yrotation Xrotation
			JOINT Spine1
			{
				OFFSET 0.056720 2.048850 -0.042750
				CHANNELS 3 Zrotation Yrotation Xrotation
				JOINT Neck
				{
					OFFSET 0.000000 0.000000 0.000000
					CHANNELS 3 Zrotation Yrotation Xrotation
					JOINT Neck1
					{
						OFFSET -0.054170 1.746240 0.172020
						CHANNELS 3 Zrotation Yrotation Xrotation
						JOINT Head
						{
							OFFSET 0.104070 1.761360 -0.123970
							CHANNELS 3 Zrotation Yrotation Xrotation
							End Site
							{
								OFFSET 0.000000 0.000000 0.000000
							}
						}
					}
				}
				JOINT LeftShoulder
				{
					OFFSET 0.000000 0.000000 0.000000
					CHANNELS 3 Zrotation Yrotation Xrotation
					JOINT LeftArm
					{
						OFFSET 3.362410 1.200890 -0.311210
						CHANNELS 3 Zrotation Yrotation Xrotation
						JOINT LeftForeArm
						{
							OFFSET 4.983000 -0.000000 -0.000000
							CHANNELS 3 Zrotation Yrotation Xrotation
							JOINT LeftHand
							{
								OFFSET 3.483560 -0.000000 -0.000000
								CHANNELS 3 Zrotation Yrotation Xrotation
								JOINT LeftFingerBase
								{
									OFFSET 0.000000 0.000000 0.000000
									CHANNELS 3 Zrotation Yrotation Xrotation
									JOINT LeftHandIndex1
									{
										OFFSET 0.715260 -0.000000 -0.000000
										CHANNELS 3 Zrotation Yrotation Xrotation
										End Site
										{
											OFFSET 0.000000 0.000000 0.000000
										}
									}
								}
								JOINT LThumb
								{
									OFFSET 0.000000 0.000000 0.000000
									CHANNELS 3 Zrotation Yrotation Xrotation
									End Site
									{
										OFFSET 0.000000 0.000000 0.000000
									}
								}
							}
						}
					}
				}
				JOINT RightShoulder
				{
					OFFSET 0.000000 0.000000 0.000000
					CHANNELS 3 Zrotation Yrotation Xrotation
					JOINT RightArm
					{
						OFFSET -3.136600 1.374050 -0.404650
						CHANNELS 3 Zrotation Yrotation Xrotation
						JOINT RightForeArm
						{
							OFFSET -5.241900 -0.000000 -0.000000
							CHANNELS 3 Zrotation Yrotation Xrotation
							JOINT RightHand
							{
								OFFSET -3.444170 -0.000000 -0.000000
								CHANNELS 3 Zrotation Yrotation Xrotation
								JOINT RightFingerBase
								{
									OFFSET 0.000000 0.000000 0.000000
									CHANNELS 3 Zrotation Yrotation Xrotation
									JOINT RightHandIndex1
									{
										OFFSET -0.622530 -0.000000 -0.000000
										CHANNELS 3 Zrotation Yrotation Xrotation
										End Site
										{
											OFFSET 0.000000 0.000000 0.000000
										}
									}
								}
								JOINT RThumb
								{
									OFFSET 0.000000 0.000000 0.000000
									CHANNELS 3 Zrotation Yrotation Xrotation
									End Site
									{
										OFFSET 0.000000 0.000000 0.000000
									}
								}
							}
						}
					}
				}
			}
		}
	}
}
MOTION
Frames: 12
Frame Time: 0.008333
1.837318 17.643628 2.647602 -28.591688 -23.484420 30.118791 -18.142593 -2.392985 4.509929 22.109354 -17.303603 -17.320723 2.494609 0.702817 14.217317 1.556946 7.663635 -7.582958 0.131500 0.000001 -33.810200 3.196584 3.705992 3.915226 -31.913545 -20.937044 -49.412884 0.823322 0.490680 -1.455385 -0.328322 -12.635483 13.181508 -6.594601 0.000000 -53.145500 20.154784 -0.499606 -5.572519 3.090323 -2.643195 -3.790106 -7.706680 -2.476631 -0.305909 19.500262 -14.246804 -5.067290 -2.005559 -0.184738 0.642569 0.000000 0.000000 0.000000 2.919546 -1.067465 0.277812 -84.388205 -8.888614 13.513790 -1.386565 -37.494595 -0.029839 10.794432 -2.991227 -0.302428 -0.087138 0.190937 -0.000000 0.000000 0.000000 0.000000 0.000000 0.000000 0.000000 10.753129 -10.641429 -1.598491 47.311467 10.419364 -8.562727 178.916327 59.462443 179.946330 -7.154911 11.572395 -0.793018 0.181988 -0.746696 -0.000000 0.000000 0.000000 0.000000 0.000000 0.000000 0.000000 
1.830968 17.636048 2.667180 -29.071417 -23.867238 30.671824 -18.168771 -2.389516 4.639208 22.508852 -17.100729 -17.720855 2.561818 0.680428 14.564223 1.627457 8.017083 -7.798293 0.117000 0.000000 -33.420400 3.189748 3.650620 3.901986 -30.100083 -20.899565 -50.070160 1.009823 0.560240 -1.595526 -0.324004 -13.060437 13.201876 -6.836900 0.000000 -55.191900 20.173234 -0.334270 -5.870300 3.086489 -2.506321 -3.825996 -7.682432 -2.330390 -0.201775 19.517432 -14.284232 -5.098863 -1.981370 -0.182923 0.633628 0.000000 0.000000 0.000000 2.822454 -0.628105 0.247992 -84.209778 -8.354370 13.549678 -1.394822 -37.684830 -0.028495 10.633688 -2.852363 -0.284419 -0.086555 0.185271 0.000000 0.000000 0.000000 0.000000 0.000000 0.000000 0.000000 10.730775 -10.606439 -1.631099 46.934099 10.927189 -8.596545 178.922437 59.598888 179.946487 -7.096429 11.601298 -0.788434 0.179974 -0.748750 -0.000000 0.000000 0.000000 0.000000 0.000000 0.000000 0.000000 
1.824292 17.626355 2.684703 -29.636288 -24.382107 31.262114 -18.212106 -2.397105 4.747686 22.884413 -16.595923 -18.139486 2.619063 0.658127 14.950007 1.671463 8.196944 -8.029965 0.094500 -0.000000 -33.152600 3.168773 3.568183 3.794152 -28.073932 -20.723379 -50.201780 1.188519 0.659685 -2.693682 -0.563558 -13.490565 14.870033 -7.126101 0.000000 -58.157000 20.236532 -0.155802 -6.093819 3.088608 -2.354418 -3.847217 -7.662408 -2.168903 -0.103047 19.485563 -14.284633 -5.134685 -1.953411 -0.180695 0.623159 0.000000 0.000000 0.000000 2.644085 -0.116443 0.232454 -83.939361 -7.849929 13.544266 -1.401540 -37.899913 -0.027307 10.501554 -2.701137 -0.266312 -0.085859 0.179666 0.000000 0.000000 0.000000 0.000000 0.000000 0.000000 0.000000 10.632648 -10.514119 -1.669491 46.637172 11.469014 -8.608983 178.940989 59.740475 179.946016 -7.081937 11.624534 -0.788351 0.178203 -0.751591 -0.000000 0.000000 0.000000 0.000000 0.000000 0.000000 0.000000 
1.815669 17.615237 2.698390 -30.229122 -24.966494 31.787895 -18.249696 -2.403382 4.829538 23.171717 -15.861506 -18.481249 2.654326 0.634557 15.322471 1.683946 8.188614 -8.271175 0.064900 0.000000 -33.016700 3.139427 3.481333 3.562385 -25.804167 -20.606349 -49.777505 1.394565 0.773809 -4.688960 -1.032894 -13.472726 18.134254 -7.215800 -0.000000 -61.627200 20.295620 0.000439 -6.195493 3.088535 -2.212796 -3.846270 -7.650607 -2.018506 -0.015824 19.426809 -14.246853 -5.173604 -1.924781 -0.178274 0.611656 0.000000 0.000000 0.000000 2.418263 0.431430 0.233998 -83.567754 -7.371410 13.494326 -1.408477 -38.143849 -0.026320 10.411607 -2.544437 -0.249106 -0.085271 0.174338 -0.000000 0.000000 0.000000 0.000000 0.000000 0.000000 0.000000 10.494147 -10.377990 -1.713274 46.428042 12.031023 -8.603799 178.969633 59.878225 179.944943 -7.115287 11.640216 -0.793173 0.176923 -0.754906 -0.000000 0.000000 0.000000 0.000000 0.000000 0.000000 0.000000 
1.803398 17.603303 2.706759 -30.794477 -25.564463 32.178207 -18.264348 -2.399944 4.878424 23.331714 -14.963631 -18.693820 2.658738 0.610124 15.644800 1.660738 7.978588 -8.515941 0.029500 0.000000 -33.025300 3.117175 3.397570 3.214987 -23.435340 -20.592188 -48.793025 1.625428 0.880820 -7.342763 -1.623652 -12.804361 22.714901 -6.987900 -0.000000 -65.002700 20.302485 0.108426 -6.157627 3.078151 -2.100662 -3.821061 -7.650470 -1.899254 0.055742 19.365098 -14.174180 -5.215003 -1.898174 -0.175867 0.599487 0.000000 0.000000 0.000000 2.182936 0.977758 0.253658 -83.092376 -6.911850 13.397959 -1.417224 -38.412819 -0.025553 10.374935 -2.390943 -0.233699 -0.084996 0.169407 -0.000000 0.000000 0.000000 0.000000 0.000000 0.000000 0.000000 10.350584 -10.213470 -1.761192 46.310791 12.594271 -8.584535 179.005067 60.001864 179.943343 -7.196740 11.647717 -0.802696 0.176388 -0.758430 -0.000000 0.000000 0.000000 0.000000 0.000000 0.000000 0.000000 
1.786995 17.591317 2.708693 -31.261614 -26.132058 32.470405 -18.256144 -2.423639 4.840581 23.357295 -13.970787 -18.782219 2.629803 0.586604 15.885586 1.601218 7.571224 -8.751869 -0.007700 -0.000000 -33.182500 3.142866 3.357459 2.974900 -21.589724 -20.491409 -49.446499 1.868721 0.746487 -5.927259 -1.721916 -11.629452 25.501307 -6.541300 -0.000000 -67.748100 20.213146 0.157513 -6.051702 3.045888 -2.024685 -3.793344 -7.663377 -1.816923 0.110668 19.318337 -14.072305 -5.261194 -1.875755 -0.173622 0.586139 0.000000 0.000000 0.000000 1.964414 1.495489 0.292506 -82.517994 -6.467934 13.251678 -1.429011 -38.693938 -0.024986 10.398628 -2.250311 -0.220893 -0.085148 0.164820 0.000000 0.000000 0.000000 0.000000 0.000000 0.000000 0.000000 10.230428 -10.035142 -1.809796 46.280370 13.146474 -8.555841 179.041379 60.104219 179.941368 -7.323488 11.648274 -0.816916 0.177017 -0.761928 -0.000000 0.000000 0.000000 0.000000 0.000000 0.000000 0.000000 
1.767336 17.579786 2.704927 -31.645460 -26.652255 32.651289 -18.231576 -2.454462 4.746004 23.289571 -12.904430 -18.765625 2.572989 0.568559 16.040667 1.509262 6.984120 -8.963520 -0.041300 0.000000 -33.490100 3.207930 3.318707 2.776093 -20.354452 -20.100373 -50.424739 2.042059 0.496881 -2.840404 -1.635647 -10.355807 27.645515 -6.033100 -0.000000 -69.564700 20.047989 0.156315 -5.871937 2.999337 -1.983493 -3.756072 -7.687290 -1.770895 0.152646 19.288896 -13.950966 -5.314080 -1.856861 -0.171477 0.570874 0.000000 0.000000 0.000000 1.755896 1.984583 0.347271 -81.860203 -6.065644 13.079281 -1.443691 -38.946986 -0.024610 10.488553 -2.133242 -0.211586 -0.085758 0.160577 0.000000 0.000000 0.000000 0.000000 0.000000 0.000000 0.000000 10.134985 -9.852825 -1.858555 46.317993 13.675952 -8.528200 179.078819 60.184401 179.939071 -7.489874 11.644524 -0.835236 0.178675 -0.765363 -0.000000 0.000000 0.000000 0.000000 0.000000 0.000000 0.000000 
1.745401 17.569403 2.696505 -31.955856 -27.119816 32.735528 -18.193401 -2.479699 4.621185 23.161282 -11.786918 -18.685152 2.495596 0.556687 16.112411 1.392315 6.255347 -9.131505 -0.065900 0.000000 -33.966300 3.302744 3.257159 2.584713 -19.674497 -19.349963 -50.787180 2.108228 0.257424 -0.032504 -1.583014 -9.136853 30.022732 -5.500800 -0.000000 -70.414800 19.822712 0.118982 -5.635596 2.943311 -1.969884 -3.710236 -7.720276 -1.754545 0.177679 19.277996 -13.809295 -5.365900 -1.842362 -0.169633 0.555925 0.000000 0.000000 0.000000 1.553775 2.403583 0.415239 -81.139461 -5.681582 12.847828 -1.459123 -39.162934 -0.024382 10.640026 -2.044467 -0.205881 -0.086509 0.156547 0.000000 0.000000 0.000000 0.000000 0.000000 0.000000 0.000000 10.065833 -9.662959 -1.902621 46.397444 14.153576 -8.514218 179.116137 60.237828 179.936540 -7.689438 11.637121 -0.857150 0.181328 -0.768678 -0.000000 0.000000 0.000000 0.000000 0.000000 0.000000 0.000000 
1.723068 17.560647 2.685142 -32.192159 -27.516795 32.759081 -18.148320 -2.498428 4.484561 23.007953 -10.689298 -18.589085 2.407963 0.550633 16.111742 1.262773 5.453121 -9.244583 -0.079300 0.000000 -34.537999 3.417232 3.171423 2.421529 -19.452875 -18.271941 -50.609225 2.084616 0.055695 2.405911 -1.560337 -7.967497 32.380981 -4.918900 -0.000000 -70.496401 19.563556 0.058679 -5.383492 2.883466 -1.977340 -3.662534 -7.757349 -1.760973 0.191119 19.278048 -13.661680 -5.419998 -1.830560 -0.167950 0.540404 0.000000 0.000000 0.000000 1.338502 2.755704 0.492669 -80.381542 -5.339811 12.577154 -1.475509 -39.293920 -0.024256 10.848182 -1.990891 -0.204480 -0.087268 0.152624 0.000000 0.000000 0.000000 0.000000 0.000000 0.000000 0.000000 10.011820 -9.479058 -1.940819 46.492388 14.569322 -8.524329 179.152331 60.265903 179.933878 -7.913220 11.630582 -0.881758 0.184848 -0.771855 -0.000000 0.000000 0.000000 0.000000 0.000000 0.000000 0.000000 
1.701245 17.554084 2.672060 -32.342305 -27.826709 32.734137 -18.094561 -2.505554 4.354128 22.839958 -9.689235 -18.504635 2.317730 0.548287 16.049830 1.132626 4.646824 -9.296813 -0.082200 0.000000 -35.189000 3.545775 3.065236 2.289990 -19.511727 -16.990415 -50.074272 2.007739 -0.105929 4.541121 -1.551468 -6.772844 34.472501 -4.232600 0.000001 -70.140800 19.276163 -0.017732 -5.142628 2.820544 -2.001430 -3.618886 -7.795728 -1.785647 0.192400 19.289335 -13.517749 -5.473412 -1.821340 -0.166487 0.525307 0.000000 0.000000 0.000000 1.113172 3.011411 0.576665 -79.612929 -5.028474 12.249739 -1.492334 -39.315463 -0.024174 11.101495 -1.973756 -0.207183 -0.087761 0.148664 0.000000 0.000000 0.000000 0.000000 0.000000 0.000000 0.000000 9.973291 -9.311250 -1.969510 46.582863 14.903798 -8.566787 179.185019 60.266795 179.931217 -8.151312 11.626295 -0.908159 0.189158 -0.774800 -0.000000 0.000000 0.000000 0.000000 0.000000 0.000000 0.000000 
1.680624 17.549847 2.659384 -32.399560 -28.024592 32.682506 -18.035852 -2.494083 4.258963 22.682361 -8.879676 -18.477163 2.234801 0.547388 15.951862 1.014734 3.911311 -9.300172 -0.077999 0.000000 -35.770300 3.680508 2.940343 2.186587 -19.667677 -15.652965 -49.356693 1.913289 -0.233660 6.451018 -1.544585 -5.572240 36.119358 -3.465000 0.000000 -69.571400 18.982594 -0.102093 -4.951836 2.759491 -2.039150 -3.584027 -7.829698 -1.825005 0.195528 19.303383 -13.402068 -5.537360 -1.810890 -0.164850 0.507706 0.000000 0.000000 0.000000 0.869979 3.214439 0.661412 -78.863773 -4.804155 11.929489 -1.512786 -39.152656 -0.024081 11.392524 -1.996142 -0.214491 -0.088130 0.144591 -0.000000 0.000000 0.000000 0.000000 0.000000 0.000000 0.000000 9.933751 -9.184337 -1.992990 46.658489 15.151132 -8.642194 179.214384 60.244236 179.928658 -8.392274 11.628714 -0.935357 0.193906 -0.777455 -0.000000 0.000000 0.000000 0.000000 0.000000 0.000000 0.000000 
1.660863 17.548417 2.646861 -32.349969 -28.108267 32.579198 -17.962021 -2.458138 4.202692 22.510424 -8.315791 -18.481557 2.161405 0.545948 15.821430 0.916025 3.294851 -9.251323 -0.069600 -0.000000 -36.315000 3.825094 2.805762 2.096075 -19.797964 -14.395102 -48.567983 1.822103 -0.341585 8.230740 -1.532818 -4.406491 37.236643 -2.664100 0.000000 -69.182300 18.660202 -0.195730 -4.803355 2.694441 -2.088087 -3.559161 -7.861446 -1.876950 0.190562 19.333336 -13.315723 -5.599616 -1.801952 -0.163406 0.491086 0.000000 0.000000 0.000000 0.647050 3.292491 0.745972 -78.157131 -4.606291 11.547279 -1.534520 -38.826197 -0.023919 11.698623 -2.049361 -0.225306 -0.087924 0.140288 -0.000000 0.000000 0.000000 0.000000 0.000000 0.000000 0.000000 9.914093 -9.100887 -2.003899 46.713135 15.290303 -8.755024 179.236474 60.195582 179.926341 -8.627864 11.636527 -0.962447 0.199146 -0.779729 -0.000000 0.000000 0.000000 0.000000 0.000000 0.000000 0.000000 
